<?xml version="1.0" encoding="utf-8"?>
<!-- Generator: Adobe Illustrator 18.0.0, SVG Export Plug-In . SVG Version: 6.00 Build 0)  -->
<!DOCTYPE svg PUBLIC "-//W3C//DTD SVG 1.1//EN" "http://www.w3.org/Graphics/SVG/1.1/DTD/svg11.dtd">
<svg version="1.1" id="Layer_1" xmlns="http://www.w3.org/2000/svg" xmlns:xlink="http://www.w3.org/1999/xlink" x="0px" y="0px"
	 width="841.9px" height="595.3px" viewBox="0 0 841.9 595.3" enable-background="new 0 0 841.9 595.3" xml:space="preserve">
<g>
	<rect fill="#F1F2F2" width="841.9" height="595.3"/>
	<rect y="484.6" fill="#D1D3D4" width="841.9" height="110.7"/>
	<g>
		<path fill="#3F2311" d="M311.9,316.7v-259c0-7.2,5.8-13,13-13h192c7.2,0,13,5.8,13,13v259c0,7.2-5.8,13-13,13h-192
			C317.8,329.7,311.9,323.9,311.9,316.7z"/>
		<rect x="324.9" y="60" fill="#FFFFFF" width="192" height="254.4"/>
		<g>
			<rect x="330.9" y="68" fill="#FFE987" width="180" height="238.5"/>
			<path fill="#008C84" d="M330.9,190.3v78.2h107.6c0,0-23.1-139-64-139C355.8,129.6,341.2,158.7,330.9,190.3z"/>
			<path fill="#FFFFFF" d="M351.6,166c0,0,4.4-20.9,23-10.8c0,0,2.8-16.3,12.9-5.7c0,0,2.8-13.9,13.7-14.4c10.9-0.5,17,9.1,17,9.1
				s8.4-8.5,19-5.8c16.2,4.1,13.7,27.6,13.7,27.6H351.6z"/>
			<path fill="#FFDF7B" d="M371.6,98.2c0,0-2.8-16.3-12.9-5.7c0,0-2.8-13.9-13.7-14.4c-6.4-0.3-11.2,2.9-14,5.6V109h63.7
				C394.6,109,390.2,88.1,371.6,98.2z"/>
			<path fill="#FFFFFF" d="M510.9,82.6c-6.4,2.8-10.4,6.9-10.4,6.9s-9.1-14.3-25.5-13.6c-16.4,0.7-20.6,21.6-20.6,21.6
				c-15.2-15.9-19.4,8.6-19.4,8.6c-27.9-15.2-34.6,16.2-34.6,16.2h110.5V82.6z"/>
			<path fill="#00A79D" d="M510.9,169.3c-13.3-38.2-31.6-72.9-54.3-72.9c-50.6,0-76.8,172.1-76.8,172.1h131.1V169.3z"/>
			<g>
				<path fill="#8B5E3C" d="M456.7,213.8c0,6.5,0,13,0,19.5c1.7,1.1,3.7,1.1,5.4,0c0-6.5,0-13,0-19.5
					C460.4,212.7,458.4,212.7,456.7,213.8z"/>
				<path fill="#8DC63F" d="M459.4,171.5c-11.6,0-15.8,20.4-15.8,34.7c0,14.3,15.8,12.7,15.8,12.7s15.8,1.6,15.8-12.7
					C475.2,191.9,470.9,171.5,459.4,171.5z"/>
				<path fill="#39B54A" d="M464.6,173.1c3.1,7.8,4.4,18,4.4,26.3c0,15.9-17.5,14.1-17.5,14.1s-2.8,0.3-6.2-0.4
					c4.1,6.8,14.1,5.8,14.1,5.8s15.8,1.6,15.8-12.7C475.2,194.4,472.3,178.3,464.6,173.1z"/>
				
					<ellipse transform="matrix(0.2136 -0.9769 0.9769 0.2136 175.5331 588.4493)" fill="#D7DF23" cx="453.3" cy="185.2" rx="7.3" ry="3"/>
			</g>
			<g>
				<path fill="#8B5E3C" d="M351.6,234.6c0,6.5,0,13,0,19.5c1.7,1.1,3.7,1.1,5.4,0c0-6.5,0-13,0-19.5
					C355.3,233.4,353.3,233.4,351.6,234.6z"/>
				<path fill="#8DC63F" d="M354.3,192.2c-11.6,0-15.8,20.4-15.8,34.7c0,14.3,15.8,12.7,15.8,12.7s15.8,1.6,15.8-12.7
					C370.1,212.7,365.9,192.2,354.3,192.2z"/>
				<path fill="#39B54A" d="M359.6,193.9c3.1,7.8,4.4,18,4.4,26.3c0,15.9-17.5,14.1-17.5,14.1s-2.8,0.3-6.2-0.4
					c4.1,6.8,14.1,5.8,14.1,5.8s15.8,1.6,15.8-12.7C370.1,215.1,367.2,199,359.6,193.9z"/>
				
					<ellipse transform="matrix(0.2136 -0.9769 0.9769 0.2136 72.6387 502.1138)" fill="#D7DF23" cx="348.2" cy="205.9" rx="7.3" ry="3"/>
			</g>
			<path fill="#8DC63F" d="M330.9,306.5v-43.4c0,0,75.7-36.5,180-41.6v85H330.9z"/>
			<path fill="#39B54A" d="M510.9,228.1v-6.6c-104.3,5.1-180,41.6-180,41.6v7.9C355,260.8,422.7,235.4,510.9,228.1z"/>
			<path fill="#FDBF65" d="M510.9,272.3c-12.9-10-39.1-28.1-74.5-41.7c-8.6,1.7-16.8,3.5-24.5,5.4c16.6,9.2,47.4,30,80.4,70.6h18.6
				V272.3z"/>
			<g>
				<path fill="#8B5E3C" d="M381.4,231.5c0,10.9,0,21.9,0,32.8c2.9,1.9,6.2,1.9,9.1,0c0-10.9,0-21.9,0-32.8
					C387.6,229.6,384.3,229.6,381.4,231.5z"/>
				<path fill="#8DC63F" d="M386,160.2c-19.5,0-26.6,34.4-26.6,58.5S386,240,386,240s26.6,2.7,26.6-21.3S405.4,160.2,386,160.2z"/>
				<path fill="#39B54A" d="M394.8,163c5.2,13.1,7.3,30.3,7.3,44.3c0,26.7-29.5,23.7-29.5,23.7s-4.7,0.5-10.4-0.7
					c6.9,11.4,23.7,9.7,23.7,9.7s26.6,2.7,26.6-21.3C412.6,198.7,407.6,171.6,394.8,163z"/>
				
					<ellipse transform="matrix(0.2136 -0.9769 0.9769 0.2136 116.3989 511.1424)" fill="#D7DF23" cx="375.7" cy="183.3" rx="12.3" ry="5"/>
			</g>
		</g>
	</g>
	<g>
		<path fill="#3F2311" d="M56.1,316.7v-259c0-7.2,5.8-13,13-13h192c7.2,0,13,5.8,13,13v259c0,7.2-5.8,13-13,13h-192
			C62,329.7,56.1,323.9,56.1,316.7z"/>
		<rect x="69.1" y="60" fill="#FFFFFF" width="192" height="254.4"/>
		<g>
			<rect x="75.1" y="68" fill="#5A1C59" width="180" height="238.5"/>
			<polygon fill="#FFF9AE" points="75.1,79.7 75.1,102.7 196.3,93.1 196.3,89.3 			"/>
			<g>
				<path fill="#F15B40" d="M194,80.1v10.3h20.3V80.1c0-5.6-4.5-10.1-10.1-10.1h0C198.5,70,194,74.6,194,80.1z"/>
				<rect x="194" y="82" fill="#8AD7F8" width="20.3" height="20.4"/>
				<polygon fill="#FFFFFF" points="194,104.2 188.4,234 219.8,234 214.2,104.2 				"/>
				<rect x="189.8" y="96.4" fill="#F15B40" width="28.5" height="7.8"/>
				<path fill="#E11B22" d="M194,80.1v4h20.3v-4c0-1.3-0.3-2.6-0.7-3.8h-18.8C194.3,77.5,194,78.8,194,80.1z"/>
				<rect x="189.8" y="78.1" fill="#F15B40" width="28.5" height="7.8"/>
				<g>
					<polygon fill="#F15B40" points="192.8,132.8 215.5,132.8 214.7,114.9 193.6,114.9 					"/>
					<polygon fill="#F15B40" points="216.7,161.5 215.9,143.6 192.3,143.6 191.5,161.5 					"/>
					<polygon fill="#F15B40" points="217.9,190.2 217.2,172.4 191.1,172.4 190.3,190.2 					"/>
					<polygon fill="#F15B40" points="218.4,201.1 189.8,201.1 188.8,219 219.4,219 					"/>
				</g>
				<path fill="#3F2311" d="M201.7,123v4.1h4.8V123c0-1.3-1.1-2.4-2.4-2.4l0,0C202.8,120.6,201.7,121.6,201.7,123z"/>
				<path fill="#3F2311" d="M201.7,151.7v4.1h4.8v-4.1c0-1.3-1.1-2.4-2.4-2.4l0,0C202.8,149.3,201.7,150.4,201.7,151.7z"/>
				<path fill="#3F2311" d="M201.7,180.5v4.1h4.8v-4.1c0-1.3-1.1-2.4-2.4-2.4l0,0C202.8,178.1,201.7,179.1,201.7,180.5z"/>
				<path fill="#3F2311" d="M201.7,209.2v4.1h4.8v-4.1c0-1.3-1.1-2.4-2.4-2.4l0,0C202.8,206.8,201.7,207.9,201.7,209.2z"/>
			</g>
			<polygon fill="#732B8E" points="75.1,306.5 75.1,239.7 256.1,239.7 255.1,306.5 			"/>
			<path fill="#94268F" d="M254.5,206.4c0,0-79.7,3.8-129.5,33.7l131.1,29.8L254.5,206.4z"/>
			<path fill="#94268F" d="M254.2,248.8c0,0-94.2,4.5-153.2,39.9l78.3,17.8h75.8l0.2-13.8L254.2,248.8z"/>
		</g>
		<g>
			<g>
				<path fill="#FFFFFF" d="M92,138.5c1.3,0,1.3-2,0-2S90.7,138.5,92,138.5L92,138.5z"/>
			</g>
			<g>
				<path fill="#FFFFFF" d="M126.5,113.5c1.3,0,1.3-2,0-2S125.2,113.5,126.5,113.5L126.5,113.5z"/>
			</g>
			<g>
				<path fill="#FFFFFF" d="M85.5,108c1.3,0,1.3-2,0-2S84.2,108,85.5,108L85.5,108z"/>
			</g>
			<g>
				<path fill="#FFFFFF" d="M127.5,136.5c1.3,0,1.3-2,0-2S126.2,136.5,127.5,136.5L127.5,136.5z"/>
			</g>
			<g>
				<path fill="#FFFFFF" d="M173,112c1.3,0,1.3-2,0-2S171.7,112,173,112L173,112z"/>
			</g>
			<g>
				<path fill="#FFFFFF" d="M229.5,136c1.3,0,1.3-2,0-2S228.2,136,229.5,136L229.5,136z"/>
			</g>
			<g>
				<path fill="#FFFFFF" d="M250.5,93.5c1.3,0,1.3-2,0-2S249.2,93.5,250.5,93.5L250.5,93.5z"/>
			</g>
			<g>
				<path fill="#FFFFFF" d="M176,76.5c1.3,0,1.3-2,0-2S174.7,76.5,176,76.5L176,76.5z"/>
			</g>
			<g>
				<path fill="#FFFFFF" d="M109,79c1.3,0,1.3-2,0-2S107.7,79,109,79L109,79z"/>
			</g>
			<g>
				<path fill="#FFFFFF" d="M109,123.5c3.2,0,3.2-5,0-5S105.8,123.5,109,123.5L109,123.5z"/>
			</g>
			<g>
				<path fill="#FFFFFF" d="M236,82c3.2,0,3.2-5,0-5S232.8,82,236,82L236,82z"/>
			</g>
			<g>
				<path fill="#FFFFFF" d="M156.5,81c3.2,0,3.2-5,0-5S153.3,81,156.5,81L156.5,81z"/>
			</g>
			<g>
				<path fill="#FFFFFF" d="M156,117.5c1.3,0,1.3-2,0-2S154.7,117.5,156,117.5L156,117.5z"/>
			</g>
			<g>
				<path fill="#FFFFFF" d="M229,86c1.3,0,1.3-2,0-2S227.7,86,229,86L229,86z"/>
			</g>
			<g>
				<path fill="#FFFFFF" d="M248,118c1.3,0,1.3-2,0-2S246.7,118,248,118L248,118z"/>
			</g>
			<g>
				<path fill="#FFFFFF" d="M230,112.5c1.3,0,1.3-2,0-2S228.7,112.5,230,112.5L230,112.5z"/>
			</g>
			<g>
				<path fill="#FFFFFF" d="M186.5,137c1.3,0,1.3-2,0-2S185.2,137,186.5,137L186.5,137z"/>
			</g>
			<g>
				<path fill="#FFFFFF" d="M251,135c1.3,0,1.3-2,0-2S249.7,135,251,135L251,135z"/>
			</g>
			<g>
				<path fill="#FFFFFF" d="M134.5,73c1.3,0,1.3-2,0-2S133.2,73,134.5,73L134.5,73z"/>
			</g>
			<g>
				<path fill="#FFFFFF" d="M81,75c1.3,0,1.3-2,0-2S79.7,75,81,75L81,75z"/>
			</g>
			<g>
				<path fill="#FFFFFF" d="M81.5,131.5c1.3,0,1.3-2,0-2S80.2,131.5,81.5,131.5L81.5,131.5z"/>
			</g>
		</g>
	</g>
	<g>
		<path fill="#3F2311" d="M576.4,316.7v-259c0-7.2,5.8-13,13-13h192c7.2,0,13,5.8,13,13v259c0,7.2-5.8,13-13,13h-192
			C582.3,329.7,576.4,323.9,576.4,316.7z"/>
		<rect x="589.4" y="60" fill="#FFFFFF" width="192" height="254.4"/>
		<g>
			<rect x="595.4" y="68" fill="#F5A0C1" width="180" height="238.5"/>
			<path fill="#77B8E5" d="M595.4,218.7v80.5h180v-80.5c-7.5,0-7.5-2-15-2c-7.5,0-7.5,2-15,2c-7.5,0-7.5-2-15-2c-7.5,0-7.5,2-15,2
				c-7.5,0-7.5-2-15-2c-7.5,0-7.5,2-15,2c-7.5,0-7.5-2-15-2c-7.5,0-7.5,2-15,2c-7.5,0-7.5-2-15-2c-7.5,0-7.5,2-15,2
				c-7.5,0-7.5-2-15-2S602.9,218.7,595.4,218.7z"/>
			<path fill="#BE1E2D" d="M604.1,200.3c0,0,5,21.5,32.7,40.4h108c0,0,19.2-14.2,19.2-40.4H604.1z"/>
			<path fill="#8AD7F8" d="M595.4,234.7V307h180v-72.3c-7.5,0-7.5-2-15-2c-7.5,0-7.5,2-15,2c-7.5,0-7.5-2-15-2c-7.5,0-7.5,2-15,2
				c-7.5,0-7.5-2-15-2c-7.5,0-7.5,2-15,2c-7.5,0-7.5-2-15-2c-7.5,0-7.5,2-15,2c-7.5,0-7.5-2-15-2c-7.5,0-7.5,2-15,2
				c-7.5,0-7.5-2-15-2S602.9,234.7,595.4,234.7z"/>
			<rect x="724" y="151.7" fill="#3F2311" width="15" height="35.3"/>
			<rect x="684" y="151.7" fill="#3F2311" width="15" height="35.3"/>
			<rect x="670.7" y="169.3" fill="#FFFFFF" width="81.7" height="35.3"/>
			<rect x="670.7" y="177.3" fill="#BCBEC0" width="81.7" height="19.3"/>
			<path fill="#3F2311" d="M615.4,221.2h144.1c2.6-5.8,4.4-12.7,4.4-20.8H604.1C604.1,200.3,606.2,209.5,615.4,221.2z"/>
			<g>
				<g>
					<circle fill="#3F2311" cx="731.5" cy="187.3" r="7.5"/>
					<circle fill="#8ED8F8" cx="731.5" cy="187.3" r="4.6"/>
				</g>
				<g>
					<circle fill="#3F2311" cx="711.5" cy="187.3" r="7.5"/>
					<circle fill="#8ED8F8" cx="711.5" cy="187.3" r="4.6"/>
				</g>
				<g>
					<circle fill="#3F2311" cx="691.5" cy="187.3" r="7.5"/>
					<circle fill="#8ED8F8" cx="691.5" cy="187.3" r="4.6"/>
				</g>
			</g>
		</g>
		<path fill="#FFFFFF" d="M688,151.7c0,0,2.5-11.8,13-6.1c0,0,1.6-9.2,7.3-3.2c0,0,1.6-7.8,7.7-8.1c6.2-0.3,9.6,5.1,9.6,5.1
			s4.7-4.8,10.7-3.3c9.1,2.3,7.7,15.6,7.7,15.6H688z"/>
		<circle fill="#FFE987" cx="645.9" cy="121.8" r="24.8"/>
	</g>
	<ellipse fill="#A7A9AC" cx="256.1" cy="523.6" rx="125.1" ry="10.4"/>
	<g>
		<polygon fill="#F8A589" points="261.2,408.6 272.3,501.1 249.8,501.1 236.7,412.1 		"/>
		<polygon fill="#F8A589" points="181.6,408.6 170.6,501.1 193.1,501.1 206.1,412.1 		"/>
		<path fill="#F8A589" d="M294,290.3c0,0,14.8,17.2,29.5,17.1c14.7-0.2,41.7-20.9,41.7-20.9l10.1,16.3c0,0-31.4,25.5-49.3,26.7
			c-18,1.2-46.2-21.5-46.2-21.5L294,290.3z"/>
		<path fill="#E1462E" d="M254.4,258c0,0,19.4,13.7,55.4,39.4c0,0-11,24-32.5,39.4C277.3,336.7,232.5,303.2,254.4,258z"/>
		<path fill="#2A160E" d="M171.6,368.1l-4.7,58.7c0,0,18.1,8,51.9,6.7l2.5-23.7h4.2l3.1,23.8c0,0,26.7-0.1,42.5-6.8l-4.9-58.7H171.6
			z"/>
		<path fill="#E1462E" d="M168.4,258H255c0,0,16.1,65.1,16.1,120.9c0,0-10.9,6.4-40.6,6.4c-39.2,0-62.1-9.2-62.1-9.2
			S173.8,308,168.4,258z"/>
		<rect x="202.1" y="232.7" fill="#F69377" width="21.7" height="34"/>
		<g>
			<path fill="#FFE987" d="M258.9,163.4c0,0,9.3,15.7,0,36.5c0,0-20.4-10.5-20.4-36.5H258.9z"/>
			<path fill="#F8A589" d="M212.9,142.4L212.9,142.4c-25.4,0-46,20.6-46,46v11.5c0,25.4,20.6,46,46,46h0c25.4,0,46-20.6,46-46v-11.5
				C258.9,163,238.3,142.4,212.9,142.4z"/>
			<path fill="#FFFFFF" d="M198.4,209.1c0,9.7,7.9,17.6,17.6,17.6c9.7,0,17.6-7.9,17.6-17.6H198.4z"/>
			<g>
				<circle fill="#3F2311" cx="196.3" cy="187.2" r="5"/>
				<circle fill="#3F2311" cx="238.6" cy="187.2" r="5"/>
			</g>
			<circle fill="#F8A589" cx="162.9" cy="206.4" r="14.5"/>
			<circle fill="#F69377" cx="162.9" cy="206.4" r="6.7"/>
			<path fill="#FFE987" d="M169.6,199.7c0,0,12-13,12-36.3h77.3c0,0,2-16.7-8-32c-10-15.3-7.3,7.3-7.3,7.3s-4-11.3-18.7-16
				c-14.7-4.7-4,10-4,10s-5.3-5.3-24.6-8c-19.4-2.7-5,8.7-5,8.7s-13.1-1.3-28.4,9c-15.3,10.3,6.7,8.3,6.7,8.3
				S140.9,173.3,169.6,199.7z"/>
		</g>
		<path fill="#F69377" d="M195.4,258c0,9.7,7.9,17.6,17.6,17.6c9.7,0,17.6-7.9,17.6-17.6H195.4z"/>
		<path fill="#F8A589" d="M208,290.3c0,0,14.8,17.2,29.5,17.1c14.7-0.2,41.7-20.9,41.7-20.9l10.1,16.3c0,0-31.4,25.5-49.3,26.7
			c-18,1.2-46.2-21.5-46.2-21.5L208,290.3z"/>
		<path fill="#E1462E" d="M168.4,258c0,0,19.4,13.7,55.4,39.4c0,0-11,24-32.5,39.4C191.3,336.7,146.5,303.2,168.4,258z"/>
		<g>
			<path fill="#2A160E" d="M165.1,508.7l3.3-22.7c0,0,23.2-5.5,33.7,4.5l-4.5,21L165.1,508.7z"/>
			<path fill="#FFFFFF" d="M153.6,523.6c0,0,3.2-29.6,26.4-29.6c23.2,0,22.1,29.6,22.1,29.6H153.6z"/>
			<path fill="#2A160E" d="M155.3,515.9c-1.3,4.4-1.7,7.7-1.7,7.7h48.5c0,0,0.1-3.3-0.6-7.7H155.3z"/>
		</g>
		<path fill="#F8A589" d="M365.1,286.4c0,0,2-9,10.1-14.7c8.1-5.7,8.8-0.7,3.1,7.3c0,0,15.7-3,23.3-5.3c7.7-2.3,4.2,24.3-26.4,29
			L365.1,286.4z"/>
		<path fill="#F8A589" d="M279.1,286.4c0,0,2-9,10.1-14.7c8.1-5.7,8.8-0.7,3.1,7.3c0,0,15.7-3,23.3-5.3c7.7-2.3,4.2,24.3-26.4,29
			L279.1,286.4z"/>
		<g>
			<path fill="#2A160E" d="M244.4,493.9l-3.4,29.6h71.5c0,0,3.5-29.6-23-29.6h-12.7v-9.4L244.4,493.9z"/>
			<path fill="#FFFFFF" d="M285.5,515.9h26.9c-0.8-8.1-4.6-19.8-18.8-21.7C290.1,500.1,286.9,507.5,285.5,515.9z"/>
		</g>
	</g>
</g>
</svg>
